<svg width="642" height="40" viewBox="0 0 642 40" fill="none" xmlns="http://www.w3.org/2000/svg">
<path d="M3 6.06181C3 6.06181 23.6892 36 62.0024 36C100.316 36 99.3977 4.42082 130.2 6.06181" stroke="#03ADC6" stroke-width="7"/>
<path d="M255.168 4.5C212.768 6.06181 233.001 36 194.015 36C155.03 36 155.964 4.42082 124.621 6.06181" stroke="#03ADC6" stroke-width="7"/>
<path d="M383.484 4.56181C383.484 4.56181 362.432 34.5 323.446 34.5C284.461 34.5 285.395 2.92082 254.052 4.56181" stroke="#03ADC6" stroke-width="7"/>
<path d="M510.685 4C468.285 5.56181 488.517 35.5 449.531 35.5C410.546 35.5 411.48 3.92082 380.137 5.56181" stroke="#03ADC6" stroke-width="7"/>
<path d="M639 4.06181C639 4.06181 617.948 34 578.962 34C539.977 34 540.911 2.42082 509.568 4.06181" stroke="#03ADC6" stroke-width="7"/>
</svg>